<svg version="1.1" id="fracta-logo" xmlns="http://www.w3.org/2000/svg" xmlns:xlink="http://www.w3.org/1999/xlink" x="0px" y="0px" viewBox="0 0 583 566.9" style="enable-background:new 0 0 583 566.9;" xml:space="preserve">
            <g>
                <g>
                    <g>
                        <g>
                            <g>
                                <path class="st0" d="M264.1,348.2l3.1,4.8C267.6,352.5,266.9,351.2,264.1,348.2z"></path>
                                <path class="st0" d="M476.7,324.3c0.2-0.4,0.6-0.8,0.8-1.1C476.9,323.9,476.7,324.2,476.7,324.3z"></path>
                                <path class="st0" d="M433.1,289.6c-0.2,0.2-0.3,0.3-0.4,0.4c-0.5,0.7-1.2,1.5-1.7,2.1L433.1,289.6z"></path>
                                <path class="st0" fill="#fff" d="M190.5,325.5c19.2,19.9,32.7,35,45,48.7c6.1,6.9,11.9,13.4,18,20c0.4,0.5,2.3,2.5,3.8,4
                                    c1.5,1.6,3.1,3.2,4.6,4.8c3.1,3.2,6.3,6.5,9.5,9.8c6.5,6.7,13.2,13.6,20.3,20.8c10-9.8,20.9-20.6,32.7-32.5
                                    c2.4-2.4,4.8-4.8,7.2-7.3c1.5-1.6,3.1-3.2,4.7-4.9c3.2-3.3,6.6-6.9,10.1-10.6c13.3-13,26.7-26.7,40-40.4
                                    c6.6-6.9,13.2-13.7,19.7-20.5c3.3-3.4,6.5-6.8,9.7-10.1c5.7-5.8,11.4-11.6,17-17.4c4.9-6.4,11.2-13.5,18.4-21
                                    c-5.7-5.4-11.4-11.1-17.2-16.9c-5.8-5.8-11.8-11.8-17.6-17.7c-0.9-0.9-1.8-1.8-2.7-2.7c-0.8-0.8-1.6-1.6-2.4-2.4
                                    c-1.6-1.6-3.2-3.1-4.8-4.5c-3.2-2.9-6.4-5.5-9.5-7.7l-3.9-7.3c-5.8-4.1-12.2-9.4-16.3-15.3l0.8-0.2
                                    c-8.7-6.1-16.3-15.3-20.6-18.3l0.8-0.2l-9.2-8.8l2.3,0.8c-14.3-11.6-27.7-24.8-38.9-37.2l-1.1,3
                                    c-11.4-13.7-20.5-21.8-29.2-29.6c-4.4-3.9-8.6-7.8-13-12.2c-2.2-2.2-4.5-4.6-6.8-7.2l-0.4-0.5l-0.6-0.6c-0.5-0.6-1-1.1-1.6-1.7
                                    c-1-1.1-2.1-2.3-3.2-3.5c-2.2-2.4-4.4-4.9-6.8-7.6l0.9-0.1c-8.3-6.6-15.4-12.7-21.9-18.8c-9.1,9.8-17.4,17.8-25.9,25.8
                                    c-2.2,2-4.3,4-6.4,5.9l-0.4,0.4l-0.3,0.2l-0.5,0.4l-1,0.8l-2,1.7c-2.6,2.2-5.2,4.4-7.9,6.7c-10.5,9-21.1,18.8-31.4,33.5
                                    c3-4.3-2.6,0.5-2.8-0.3c-13,14.2-27.2,29-23.4,33.3c-10,9.9-9.3,6.8-12.2,6.5c1.8,1.7-6.1,11.1-13.7,18.9l2.9-4.2l-21.6,22.8
                                    l7.7-1c-12.7,10.8-7.1-1.1-17.5,11l2.9,2.6c-8.4,7.9-16,13.1-23.8,18.2c-1.9,1.2-3.9,2.5-5.9,3.8c-1,0.6-2,1.3-3,1.9l-0.7,0.5
                                    l-0.2,0.1c-0.1,0-0.1,0.1-0.2,0.2l-0.6,0.4c-0.8,0.6-1.5,1.2-2.3,1.8c-6.3,4.9-13.1,10.5-20.8,17.1c-4,3.9-7.9,7.8-12,11.8
                                    c6.9,6.9,13.8,13.8,20.7,20.8c3.5,3.5,7,6.9,10.5,10.4c2.4,2.3,4.7,4.6,7.1,6.9c8.1,7.9,16.4,15.8,24.7,23.7
                                    c16.7,15.7,33.4,31.4,50,47c33.1,31.3,65.2,62.4,92.2,94.2l0.6,4.8c-1.9,4.2,21.3,12.3,20.8,17.4l8.5,5.7
                                    c1.4,2.5,5.1,7.3,0.9,4.5c6.4,6.7,7.1,6.3,12.7,10.1l2.6,4.5l1.3,2.2l0.3,0.6c0.1,0.1,0.1,0.2,0.2,0.3l0.3,0.4l1.3,1.8
                                    c10.6,11.3,21.4,22.2,31.9,32.5c8.2-8.4,16.3-16.8,24.1-25.1l5.8-6.2l2.9-3.1c0.6-0.6,0.7-0.8,1-1.1l0.8-0.9
                                    c2.2-2.4,4.4-4.9,6.6-7.3c8.8-9.8,18.1-19.7,28.7-29.7C398.1,458,456,393,489.4,355.5c10.3-12.4,21.9-24.3,34.2-36
                                    c3.1-2.9,6.2-5.8,9.3-8.7c3.3-3.1,6.7-6.1,10.1-9.2c10.4-9.6,20.8-19.3,31.3-29c-5.7-6.2-11.4-12.4-17.1-18.5l-8.9-9.6
                                    l-4.5-4.8l-2.6-2.9c-6.9-7.8-13.9-15.6-21-23.1c-14.2-15.1-28.7-29.4-44-41.8c-1.2-2.1-6.5-5.4-6.8-5l-46.2-47.1
                                    c0,0-225.1-227.5-78.3-30.4l-1.8-0.5c23.9,27.2,39.7,43.6,60.6,57.9c-1.3,6.9,20.6,21.4,25.2,28.7l-0.9-0.2
                                    c18.7,12.5,29.5,34.7,47.3,46.9c-0.9-0.3-2.3,0.5-5.9-2.9c11.5,10.4,27.3,24.5,25.8,27.7c6.2,5.9,12.9,12.5,19.8,19.3l1.7,1.6
                                    l0.7,0.7l1.5,1.4c1,0.9,2,1.9,3,2.8c-1,1.1-1.9,2.2-2.8,3.4c-0.5,0.6-0.9,1.2-1.4,1.8l-0.3,0.5l-0.2,0.2l-0.1,0.1l-0.3,0.3
                                    c-0.8,0.9-1.6,1.8-2.4,2.7c-6.3,7.2-11.5,13.7-15,19.2l0.5-1.8c-7,12.1-12,12.7-21.3,24.7c-0.9,0.3-1.8,0.9-1.8,0.6
                                    c-7.9,12.9-29.9,30.7-37.3,40.2l-2.1-1L417,384.6l8.1-7.4c1.6,7-18.4,12.9-30.6,30.8c-14.6,13.5-19.5,37.5-36.2,50
                                    c-4.9,9,2.8-9.4-6,2.5c-2.6-1.9,3.4-6.3-1-5.4c-9.1,11.3-19.1,14.4-30.1,28.6l-2.3-1.2c-2.9,4.3-6.1,8.1-9.5,11.6
                                    c-1.7,1.7-3.4,3.4-5.1,4.9c-0.9,0.8-1.7,1.5-2.6,2.3l-0.3,0.3l-0.2,0.1l-0.1,0.1l-0.3,0.3l-0.7,0.5c-1.8,1.3-3.4,2.3-4.8,3.3
                                    c-1.4,1-2.5,2.1-3.7,3.8c-0.7-0.4-1.3-0.5-2.1-0.5c-2.2-1.5-3.7-3.2-4.4-4.7c-0.8-1.5-0.9-2.9-1-4l0-0.4l0-0.2l-0.2-0.4
                                    c-0.3-0.5-0.5-1-0.9-1.5c-0.6-1-1.4-2.1-2.5-3.3c-2.1-2.3-5.3-5.1-10.6-8.6l-4.5-9.2c-7.2-7.9-8.3-2.5-15.5-12
                                    c2-1-9.4-11.8-3.1-8.3C230.2,435,205,421.1,184,392.2c-8.3-2.5-19.2-16.8-25.4-18.7c0.6-1.9-25-25.4-8.1-14
                                    c1.4,1,3.5,3.2,2.9,3.5l3.4,0c-11-17.5-27.7-24.1-41.2-38.7c3.6,4.7,9.3,10.2,4.4,7.6l-12.9-13.3l4.2,1.3l-18.6-20.3l0.9,4.5
                                    c-8.6-10.5-8.9-16.9-22.2-25.1c-6.3-3.4,6.6,11.5-4,2c-0.3-0.4-0.7-0.8-1-1.2l-0.5-0.6c-0.1-0.1-0.1-0.1-0.1-0.2l-0.1-0.1
                                    c-0.2-0.3-0.3-0.7-0.5-1c-0.3-0.7-0.7-1.3-0.9-1.9c-0.6-1.2-1-2.4-1.3-3.3c1.8-1.1,3.4-1.9,4.6-2.6l0.9-0.5
                                    c0.4-0.3,0.1,0.2,1.7-1.3c2.4-2.1,4.7-4.3,6.9-6.4c-3.6-0.5,0.9-4.8,5-9.7l2.3,1.2c14.8-19.7,10.2-2.5,25.4-21.6l-0.3,2.7
                                    l0.8-8.2c12-19,12-4.7,24.4-26.7c-6.5,7.1-7.1-0.7,2.1-8.3l-0.4,3.8c4.3-5,5.1-7.2,8.5-10c-1.8,3.7,1,3.9,7.5-3.2l-2.4,6.7
                                    l9.7-16c11.8-8.1,25.2-26.2,31.7-27.8c0,0,22.5-20.2,24.8-27.7c-2.7,5.9,9.7-5.2,8.3,0c0.3-0.7,0.8-1.4,1.3-2.3l0.2-0.3
                                    c0-0.1,0-0.1,0-0.1l-0.1-0.2c0-0.1-0.1-0.3-0.1-0.4c-0.1-0.5,0-1.1,0.2-1.8c0.4-1.2,1.3-2.6,2-3.1c0.6,0.7,1,1.7,1.1,2.9
                                    c-0.1,0.1-0.2,0.1-0.3,0.2c0.3,0.8,0.6,1.4,0.9,1.8c0.1,0.2,0.3,0.4,0.4,0.5c0.6,0.5,1.1,1.1,1.7,1.6c0.7,0.7,1.4,1.3,2.1,2
                                    c5.5,5.2,10.9,10,16.2,14.7c10.7,9.4,21,18.6,30.6,30.6c1.1-3,11.4,9.6,11.2,4.1c25.1,19.9,35.7,46.3,51.9,46.3
                                    c10.7,9.8,10.2,14,15.1,19.7l-2.9-2c9.9,9.3,16.3,15.2,21.9,20.7c2.8,2.7,5.5,5.4,8.3,8.2c0.5,0.5,1.1,1.1,1.6,1.6
                                    c0.3,0.3,0.5,0.6,0.8,0.9c0.6,0.6,1.1,1.2,1.8,1.9c2.4,1.4,6.3,1.7,10.6,4.1c-0.2,1.2-1.6,3.1-4.6,5.4c0-1.5-0.7-1.4-1.5-0.8
                                    c-0.9,0.6-2,1.9-3.2,3.1c0.6-0.9,0.8-1.5,0.4-1.6c-0.5-0.1-1.6,0.2-3.4,1c0,0.2,0,0.4,0,0.6c0,0.1,0,0.2,0,0.3
                                    c0,0.1,0,0.2-0.2,0.4c-0.5,0.8-1,1.6-1.5,2.3c-0.2-0.1-0.5,0.1-0.5-0.2c-7.4,8.5-5.6,7.6-1.7,4.1c0,0.4,0.6,0.4,2.2-0.3
                                    c-10.2,6.3-22.9,23.1-26.4,21.6c-23.3,24.5-37.8,44.2-56.6,65.1c-0.7,0-1.1-0.2-1.2-0.7c-0.1-0.2-0.1-0.5-0.1-0.8
                                    c0.1-0.4,0.3-0.9,0.6-1.4c1.1-2.1,3.3-5.2,5.9-8.3l-6.8,7.3l-0.9,0.9l-0.2,0.2l-0.1,0.1l-0.2,0.2l-0.8,0.9l-1.7,1.9
                                    c-0.6-1.3,0.1-2.5,1.1-3.7c0.2-0.3,2-2.1,3.3-3.4c1.4-1.4,2.6-2.7,3.6-3.9c-2.5,1.7-4.8,3.6-7,5.5l-0.2,0.2l-0.1,0.1l-0.2,0.1
                                    l-0.3,0.3c-0.2,0.2-0.4,0.4-0.7,0.6c-0.4,0.4-0.8,0.8-1.2,1.3c-1.6,1.8-3.1,4.1-5.1,6.8c-1.9-1.1-4.3-2.7-6.7-4.8
                                    c-0.6-0.5-1.2-1.1-1.8-1.7l-0.9-0.9c-0.6-0.6-1.2-1.3-1.8-1.9c-2.3-2.5-4.6-5.2-6.7-8.1l-5.6-2.6l-0.9-1.4
                                    c-0.7,0.9-6.2-2.5-9.4-5.2c-1.1-4.4,4-3.6-5.9-13.3c-6.1-9.3-22.7-21.1-33.7-30.3c5.2,5.7,2.5,4.9-0.4,3.1
                                    c-4.9-4.8-6.1-9.3-10.6-12.3l1.8-2.7c-0.2,4-15-10.5-17.7-11.4c-1.1-4.4,9,6.1,11.5,6.1c-4.5-4.4-7.4-7.3-9.5-9.3
                                    c-1.1-1-1.7-1.6-2.3-2.2c-1.2-1.2-2.4-2.3-6.9-6.6c0,0,0,0,0,0c0,0,0,0,0,0c0,0,0,0,0.1-0.1c0.1-0.1,0.3-0.3,0.4-0.4
                                    c0.5-1.3,0.5-2,0.2-2.3c-0.3-0.3-1-0.2-1.8,0.1c-0.8,0.3-1.8,0.7-2.6,0.8c-0.8,0.1-1.5,0-1.5-1c2.8-3.2,5.4-6.8,8.6-10.6
                                    l0.6-0.7l0.8-0.8c0.6-0.6,1.2-1.2,1.7-1.9c1.2-1.2,2.4-2.5,3.6-3.7c2.5-2.4,5.2-4.8,8.2-7.1l-5.3,1.4c3.3-4,6.5-7.6,9.4-10.9
                                    c1.5-1.6,2.9-3.2,4.3-4.7c1.3-1.4,2.5-2.6,3.7-3.8c4.8-4.9,9.4-8.8,13.4-11.6c1.5,1.9,2.9,3.8,4.2,5.8
                                    c3.4,2.3,6.8,4.8,10.4,7.4c0.9,0.7,1.8,1.3,2.7,2c1,0.7,2,1.5,2.9,2.2c1.9,1.4,3.8,2.8,5.6,4.2c7.3,5.4,13.7,10,19.3,14
                                    c11.3,7.9,19.4,12.9,25.1,15.8c11.4,5.8,13,2.9,10.1-3.5c-5.8-12.8-29.8-39.7-29.8-39.7c-2.7-3.2-5.4-6.4-8-9.4
                                    c-1.3-1.5-2.6-3-3.9-4.4c-2.6-2.7-5.2-5.4-7.7-8.1c-10.5-11-20.9-21.7-30.9-31.8c-10.8,10.7-21.3,21.3-31.6,31.8
                                    c-2.5,2.5-4.9,5.1-7.4,7.6l-3.7,4c-2.4,2.7-4.9,5.3-7.3,8c-2.4,2.7-4.9,5.4-7.4,8.2c-1.2,1.4-2.5,2.8-3.7,4.2l-0.9,1.1
                                    l-0.5,0.5l-0.9,0.9c-1.3,1.3-2.5,2.7-3.8,4c-9.8,10.4-19.9,21.2-30.6,32.6c12.1,11.4,24.4,23,37.3,35.2
                                    C174.8,310.8,182.4,317.8,190.5,325.5z"></path>
                            </g>
                        </g>
                    </g>
                </g>
            </g>
            </svg>